<?xml version="1.0" encoding="utf-8"?>
<!-- Generator: Adobe Illustrator 23.0.1, SVG Export Plug-In . SVG Version: 6.00 Build 0)  -->
<svg version="1.1" id="Ebene_1" xmlns="http://www.w3.org/2000/svg" xmlns:xlink="http://www.w3.org/1999/xlink" x="0px" y="0px"
	 viewBox="0 0 444.5 64" style="enable-background:new 0 0 444.5 64;" xml:space="preserve">
<title>storming-logo</title>
<g id="STORMING_Logo_ohne_CS_1_">
	<g>
		<g>
			<path d="M0,4.6L0,4.6c0,2.5,2,4.6,4.6,4.6l36.3,0c2.4,0,4.6-1.7,4.8-4.1c0.3-2.7-1.9-5-4.5-5L4.6,0C2,0,0,2,0,4.6z"/>
			<path d="M45.7,41.1c0-2.5-2-4.6-4.6-4.6l-27.4,0c-2.5,0-4.6,2-4.6,4.6c0,2.5,2,4.6,4.6,4.6l27.4,0C43.7,45.7,45.7,43.7,45.7,41.1
				z"/>
			<path d="M50.3,27.4c2.5,0,4.6-2,4.6-4.6c0-2.5-2-4.6-4.6-4.6l-27.4,0c-2.5,0-4.6,2-4.6,4.6c0,2.5,2,4.6,4.6,4.6L50.3,27.4z"/>
			<path d="M59.4,54.9H22.9c-2.5,0-4.6,2-4.6,4.6c0,2.5,2,4.6,4.6,4.6h36.6c2.5,0,4.6-2,4.6-4.6C64,56.9,62,54.9,59.4,54.9z"/>
			<circle cx="4.6" cy="22.9" r="4.6"/>
			<circle cx="59.4" cy="41.1" r="4.6"/>
		</g>
		<g>
			<path d="M191.8,10.7c-6.1,0-11.2,2-15.4,6.1c-4.2,4.1-6.2,9.1-6.2,15.2c0,6,2.1,11.1,6.2,15.2c4.2,4.1,9.3,6.1,15.4,6.1
				c6.1,0,11.2-2,15.4-6.1c4.2-4.1,6.2-9.1,6.2-15.2c0-6-2.1-11.1-6.2-15.2C203,12.8,197.8,10.7,191.8,10.7z M200.5,41.4
				c-2.4,2.6-5.2,3.9-8.7,3.9c-3.4,0-6.3-1.3-8.7-3.9c-2.4-2.6-3.5-5.7-3.5-9.4c0-3.7,1.2-6.8,3.5-9.4c2.4-2.6,5.2-3.9,8.7-3.9
				c3.4,0,6.3,1.3,8.7,3.9c2.4,2.6,3.5,5.7,3.5,9.4C204,35.7,202.8,38.8,200.5,41.4z"/>
			<path d="M337.3,11.7c-2.5,0-4.6,2.1-4.6,4.6v32c0,2.5,2.1,4.6,4.6,4.6c2.5,0,4.6-2.1,4.6-4.6v-32
				C341.9,13.7,339.8,11.7,337.3,11.7z"/>
			<path d="M311.3,11.7L311.3,11.7c-2.9,0-5.6,1.7-6.8,4.3l-8.6,18.3L287.3,16c-1.2-2.7-3.9-4.4-6.8-4.4h0c-4.2,0-7.6,3.4-7.6,7.6
				v29c0,2.5,2.1,4.6,4.6,4.6h0c2.5,0,4.6-2.1,4.6-4.6V26.9l9.9,20c0.7,1.5,2.3,2.5,4,2.5c1.7,0,3.2-0.9,3.9-2.5l9.9-20v21.3
				c0,2.5,2.1,4.6,4.6,4.6c2.5,0,4.6-2.1,4.6-4.6v-29C318.8,15,315.4,11.7,311.3,11.7z"/>
			<path d="M259.2,25.3c0-4.8-1.4-8.3-4.1-10.4c-2.7-2.2-7.3-3.2-13.7-3.2h-15.6v36.6c0,2.5,2.1,4.6,4.6,4.6h0
				c2.5,0,4.6-2.1,4.6-4.6v-8.5h6.4l7.8,11.1c0.9,1.2,2.3,2,3.8,2h0c3.7,0,5.9-4.2,3.8-7.3l-5.3-7.5
				C256.6,36.2,259.2,31.9,259.2,25.3z M248.1,30.2c-1.1,1-3.3,1.5-6.4,1.5H235V19.6h6.9c2.9,0,5,0.4,6.2,1.2
				c1.2,0.8,1.8,2.3,1.8,4.6C249.8,27.6,249.2,29.2,248.1,30.2z"/>
			<path d="M158.7,11.7h-24.5c-2.2,0-4,1.8-4,4c0,0.1,0,0.2,0,0.3c0,0.1,0,0.2,0,0.3c0,2.5,2,4.6,4.6,4.6h7.1v28c0,2.2,1.8,4,4,4
				h1.2c2.2,0,4-1.8,4-4v-28h7.1c2.5,0,4.6-2,4.6-4.6c0-0.1,0-0.2,0-0.3c0-0.1,0-0.2,0-0.3C162.7,13.4,160.9,11.7,158.7,11.7z"/>
			<path d="M110.1,28.1c-3.9-1-6.4-1.8-7.5-2.5c-1.1-0.7-1.6-1.7-1.6-2.9c0-1.2,0.4-2.2,1.3-2.9c0.9-0.7,2.1-1.1,3.6-1.1
				c2.7,0,5.4,0.7,8,2.1c1.8,1,4.1,0.5,5.3-1.2l0.2-0.3c1.3-1.9,0.7-4.6-1.3-5.7c-1.1-0.6-2.3-1.1-3.6-1.6c-2.7-0.9-5.5-1.4-8.2-1.4
				c-4.2,0-7.7,1.1-10.5,3.2c-2.8,2.1-4.2,5.1-4.2,9c0,3.9,1.1,6.8,3.3,8.6c2.2,1.8,5.7,3.3,10.5,4.4c3,0.7,5,1.5,6.1,2.2
				c1,0.7,1.5,1.7,1.5,2.9c0,1.2-0.5,2.2-1.4,2.9c-1,0.7-2.3,1.1-4,1.1c-2.9,0-6-1.1-9.2-3.4c-1.8-1.3-4.4-0.9-5.8,0.9
				c-1.6,2-1.2,5,1,6.4c4.2,2.8,8.8,4.2,13.8,4.2c4.5,0,8.2-1.1,10.9-3.4c2.8-2.3,4.1-5.3,4.1-9s-1.1-6.5-3.2-8.4
				C117,30.5,114,29.1,110.1,28.1z"/>
			<path d="M389.1,11.7L389.1,11.7c-2.5,0-4.6,2.1-4.6,4.6v21.9l-18.5-24.2c-1.1-1.4-2.8-2.3-4.6-2.3c-3.2,0-5.7,2.6-5.7,5.7v30.8
				c0,2.5,2.1,4.6,4.6,4.6h0c2.5,0,4.6-2.1,4.6-4.6V27l17.9,23.5c1.1,1.4,2.8,2.3,4.6,2.3h0.6c3.2,0,5.7-2.6,5.7-5.7V16.3
				C393.7,13.7,391.7,11.7,389.1,11.7z"/>
			<path d="M444.5,33.1c0-2.5-2.1-4.6-4.6-4.6h-9.2c-2.5,0-4.6,2.1-4.6,4.6s2.1,4.6,4.6,4.6h4.5c-0.3,4.1-3.7,7.3-7.9,7.3h0
				c-3.2,0-5.9-1.2-8.2-3.5c-2.3-2.3-3.4-5.4-3.4-9.3c0-3.9,1.2-7,3.6-9.4c2.4-2.4,5.3-3.6,8.8-3.6c1.8,0,3.5,0.3,5,0.9
				c0.6,0.2,1.3,0.6,1.9,1c1.9,1.1,4.3,0.7,5.5-1.1l0.2-0.2c1.3-1.9,0.7-4.6-1.3-5.8c-3.5-2.2-7.5-3.2-11.9-3.2
				c-5.9,0-10.9,2-15.1,6.1c-4.2,4.1-6.3,9.2-6.3,15.3c0,6.1,2.1,11.2,6.2,15.2c4.1,4,9.2,6,15.2,6c0.2,0,0.5,0,0.7,0
				c9.1-0.2,16.2-7.2,16.2-16.3V33.1z"/>
		</g>
	</g>
</g>
</svg>
